<?xml version="1.0" standalone="no"?>
<!DOCTYPE svg PUBLIC "-//W3C//DTD SVG 20010904//EN"
 "http://www.w3.org/TR/2001/REC-SVG-20010904/DTD/svg10.dtd">
<svg version="1.0" xmlns="http://www.w3.org/2000/svg"
 width="664.000000pt" height="664.000000pt" viewBox="0 0 664.000000 664.000000"
 preserveAspectRatio="xMidYMid meet">
<metadata>
Created by potrace 1.14, written by Peter Selinger 2001-2017
</metadata>
<g transform="translate(0.000000,664.000000) scale(0.100000,-0.100000)"
fill="#000000" stroke="none">
<path d="M20 3320 l0 -3320 3300 0 3300 0 0 3320 0 3320 -3300 0 -3300 0 0
-3320z m3930 1951 c0 -5 -29 -77 -64 -160 l-64 -151 53 0 52 0 7 61 c3 34 6
77 6 96 0 27 5 35 26 43 53 20 54 18 54 -94 l0 -105 28 -3 c24 -3 27 -7 27
-43 0 -36 -3 -40 -27 -43 -27 -3 -28 -6 -28 -56 0 -57 -9 -66 -67 -66 -21 0
-23 4 -23 60 l0 60 -110 0 -110 0 0 34 c0 19 31 107 71 205 l72 171 48 0 c27
0 49 -4 49 -9z m-1110 -116 c42 -22 60 -53 60 -106 0 -59 -28 -96 -115 -151
l-60 -38 96 0 97 0 -10 -40 -10 -40 -154 0 -154 0 0 44 0 43 79 46 c108 63
146 118 109 155 -19 19 -77 14 -115 -9 l-35 -22 -24 29 c-13 16 -22 34 -21 39
2 6 27 22 57 38 62 31 152 37 200 12z m394 -19 c47 -36 70 -89 70 -166 1 -78
-21 -129 -72 -168 -30 -23 -45 -27 -103 -27 -78 0 -110 18 -146 81 -32 56 -32
164 0 224 47 89 172 117 251 56z m391 4 c14 -13 30 -41 37 -61 9 -33 8 -44
-13 -86 -19 -39 -37 -56 -94 -90 l-69 -43 98 0 c96 0 97 0 91 -22 -4 -13 -9
-31 -11 -40 -5 -16 -21 -18 -160 -18 l-154 0 0 44 0 44 68 37 c91 50 132 90
132 131 0 26 -5 34 -27 41 -33 11 -77 1 -104 -23 -19 -17 -21 -17 -52 15 -31
32 -32 32 -12 48 51 39 99 54 172 51 60 -3 76 -7 98 -28z m-2728 -785 c40
-104 94 -246 119 -315 25 -69 47 -132 50 -140 3 -8 55 135 115 318 l110 332
69 0 c53 0 70 -3 70 -14 0 -25 -302 -891 -331 -949 -35 -68 -89 -111 -160
-126 -86 -19 -97 -16 -108 27 -18 61 -15 67 36 80 60 17 114 72 142 147 27 73
27 76 -11 73 l-33 -3 -147 365 c-80 201 -147 373 -147 383 -1 16 7 18 75 15
l77 -3 74 -190z m3293 -91 c39 -12 66 -29 104 -67 64 -64 85 -124 93 -259 l6
-98 -232 0 -231 0 0 -42 c0 -64 17 -114 52 -154 44 -50 80 -65 154 -65 59 0
101 13 185 58 11 6 51 -66 46 -80 -8 -22 -118 -74 -181 -87 -254 -52 -436 150
-412 457 20 258 197 402 416 337z m-2510 -163 l0 -169 30 -26 c39 -32 101 -41
170 -24 l55 13 5 175 5 175 45 12 c25 6 57 12 73 12 l27 1 -2 -392 -3 -393
-70 0 -70 0 -3 153 c-2 131 -5 153 -17 148 -49 -19 -146 -27 -200 -17 -86 16
-134 47 -164 106 -25 47 -26 57 -26 210 l0 160 45 12 c25 6 57 12 73 12 l27 1
0 -169z m800 -133 l0 -303 68 126 c106 199 256 458 268 463 6 2 39 7 75 11
l64 7 -2 -394 -2 -393 -66 -3 -65 -3 0 297 0 297 -49 -94 c-27 -52 -100 -184
-163 -294 l-115 -200 -74 0 -74 0 0 380 0 380 45 12 c25 6 55 12 68 12 l22 1
0 -302z m3032 150 l3 -153 130 -5 c107 -5 137 -10 172 -28 87 -45 130 -133
120 -242 -6 -72 -29 -114 -85 -156 -57 -44 -115 -54 -312 -54 l-170 0 0 384 0
384 48 10 c99 21 91 33 94 -140z m-1832 108 c0 -19 -4 -46 -10 -60 -9 -26 -11
-26 -110 -26 l-100 0 0 -330 0 -330 -70 0 -70 0 0 330 0 330 -105 0 -105 0 0
60 0 60 285 0 285 0 0 -34z m1430 -356 l0 -391 -67 3 -68 3 -3 333 -2 332 -93
0 -93 0 -13 -157 c-15 -201 -38 -363 -56 -406 -28 -67 -109 -117 -191 -117
-29 0 -33 4 -42 42 -6 23 -10 43 -9 44 1 1 23 11 49 22 70 31 83 64 107 278
11 99 23 226 27 284 3 58 8 108 11 113 2 4 103 7 224 7 l219 0 0 -390z m-3165
-738 c22 -11 49 -27 60 -35 19 -15 19 -16 -10 -57 -37 -53 -47 -57 -84 -29
-19 14 -49 24 -83 27 -68 5 -113 -23 -148 -93 -23 -47 -25 -60 -25 -200 0
-140 2 -153 25 -200 20 -39 35 -55 72 -73 60 -30 109 -24 178 23 l49 33 31
-40 32 -39 -23 -25 c-12 -13 -45 -35 -73 -49 -41 -21 -65 -25 -131 -25 -48 0
-101 7 -128 16 -54 18 -117 76 -147 135 -47 91 -62 246 -36 370 30 140 104
231 225 276 51 19 166 12 216 -15z m1256 8 c85 -23 166 -110 198 -215 71 -230
7 -464 -150 -550 -74 -40 -188 -47 -269 -16 -136 51 -212 190 -212 384 1 107
13 172 48 242 73 144 212 200 385 155z m-2403 -295 c-2 -168 -2 -305 -1 -305
1 0 13 26 28 57 14 32 87 164 162 295 97 170 141 238 157 242 11 3 45 8 74 12
l52 7 0 -397 0 -396 -71 0 -71 0 3 295 c4 291 4 294 -14 257 -10 -20 -84 -153
-165 -294 l-146 -258 -73 0 -73 0 0 384 0 384 48 10 c26 5 57 10 70 11 l24 1
-4 -305z m2976 283 c3 -13 6 -35 6 -50 l0 -26 30 28 c53 49 97 65 186 65 72 0
86 -3 130 -30 91 -57 141 -161 151 -315 13 -209 -63 -382 -192 -436 -81 -34
-188 -19 -275 39 l-25 16 0 -176 0 -177 -67 -17 -67 -17 -3 537 c-2 295 -5
543 -8 551 -5 15 31 26 96 29 25 1 33 -4 38 -21z m864 -283 c-2 -168 -2 -305
0 -305 2 0 12 21 24 48 11 26 84 158 161 294 100 175 147 248 161 252 12 3 45
8 74 12 l52 7 0 -397 0 -397 -67 3 -68 3 1 294 1 293 -46 -88 c-25 -49 -100
-182 -165 -296 l-118 -208 -74 0 -74 0 0 384 0 384 48 10 c26 5 57 10 70 11
l23 1 -3 -305z m870 0 l-3 -304 28 57 c16 31 90 163 164 294 98 172 141 238
156 242 12 2 46 8 75 12 l52 7 0 -397 0 -396 -71 0 -71 0 3 295 c4 291 4 294
-14 257 -10 -20 -84 -153 -165 -294 l-146 -258 -73 0 -73 0 0 384 0 384 48 10
c26 5 58 10 70 11 l24 1 -4 -305z m-2824 253 c-14 -85 -3 -78 -119 -78 l-105
0 0 -330 0 -330 -70 0 -70 0 0 330 0 330 -105 0 -105 0 0 55 0 55 290 0 290 0
-6 -32z m-394 -1169 c0 -114 53 -193 146 -219 62 -18 209 -16 334 4 324 51
464 18 538 -129 l20 -40 16 40 c30 70 81 109 174 135 61 16 238 14 359 -5 134
-20 274 -20 344 1 93 28 139 100 139 218 l0 46 60 0 60 0 0 -47 c-1 -117 -53
-249 -124 -309 -91 -78 -209 -91 -496 -54 -216 28 -324 27 -381 -3 -53 -28
-87 -84 -96 -156 l-6 -51 -52 0 -52 0 -12 59 c-24 123 -89 171 -231 171 -47 0
-152 -9 -234 -20 -289 -39 -416 -20 -519 79 -67 63 -107 168 -107 281 l0 50
60 0 60 0 0 -51z"/>
<path d="M3101 5083 c-44 -36 -50 -184 -10 -224 41 -41 92 -11 104 60 8 49 -2
133 -18 154 -20 25 -52 29 -76 10z"/>
<path d="M4013 4150 c-42 -25 -73 -88 -76 -153 l-2 -52 155 0 155 0 -3 40 c-4
62 -30 121 -68 155 -28 24 -44 30 -82 30 -29 0 -59 -8 -79 -20z"/>
<path d="M5518 3854 c-5 -4 -8 -65 -8 -136 l0 -128 91 0 c142 0 189 34 189
135 0 57 -20 97 -57 115 -31 15 -204 26 -215 14z"/>
<path d="M3035 3035 c-46 -16 -77 -51 -94 -103 -19 -58 -25 -209 -12 -292 21
-132 73 -190 169 -190 123 0 180 109 169 325 -8 170 -46 245 -133 266 -50 11
-51 11 -99 -6z"/>
<path d="M3870 3004 c-85 -48 -80 -33 -80 -260 l0 -202 34 -30 c44 -38 97 -56
150 -50 59 7 91 32 122 93 45 94 44 303 -2 402 -36 75 -137 97 -224 47z"/>
</g>
</svg>
