<svg width="380" height="370" viewBox="0 0 380 370" fill="none" xmlns="http://www.w3.org/2000/svg">
<path d="M14.4319 44.896L336.793 44.896L336.793 367.257L100.557 367.257L14.4319 280.981L14.4319 44.896Z" fill="white" stroke="#266025" stroke-width="4"/>
<path d="M112.515 277.954L102.388 367.712L15.9172 280.872L112.515 277.954Z" stroke="#266025" stroke-width="4" stroke-linejoin="bevel"/>
<ellipse cx="296.15" cy="85.8614" rx="8.3556" ry="8.82093" transform="rotate(-46.1691 296.15 85.8614)" stroke="#266025" stroke-width="4"/>
<path d="M338.495 57.7504C338.495 57.7504 335.495 59.9004 327.985 52.3504C320.475 44.8004 322.155 41.9204 322.155 41.9204L329.915 35.4004C320.985 29.0404 312.235 26.9004 308.355 30.7704C303.355 35.7704 308.355 48.8404 319.475 59.9704C330.595 71.1004 343.655 76.0704 348.655 71.0804C352.435 67.3104 350.505 58.9104 344.525 50.2304L338.495 57.7504Z" fill="#398D38" stroke="#266025" stroke-width="4" stroke-miterlimit="10"/>
<path d="M319.479 59.9717C317.887 58.3844 316.378 56.7155 314.959 54.9717L294.727 82.119V86.999H298.817L324.499 64.5117C322.745 63.0896 321.07 61.5741 319.479 59.9717Z" fill="white" stroke="#266025" stroke-width="4" stroke-miterlimit="10"/>
<path d="M375.636 23.0658C377.737 20.9647 375.129 14.9497 369.81 9.63072C364.491 4.31178 358.476 1.70314 356.375 3.80417C354.274 5.90519 356.882 11.9203 362.201 17.2392C367.52 22.5581 373.535 25.1668 375.636 23.0658Z" fill="#398D38" stroke="#266025" stroke-width="4" stroke-miterlimit="10"/>
<path d="M362.195 17.2416C360.562 15.626 359.116 13.8313 357.885 11.8916L322.155 41.8916C322.155 41.8916 320.425 44.7716 327.985 52.3216C335.545 59.8716 338.495 57.7216 338.495 57.7216L367.555 21.5616C365.611 20.3279 363.813 18.8787 362.195 17.2416Z" fill="#398D38" stroke="#266025" stroke-width="4" stroke-miterlimit="10"/>
</svg>
